<?xml version="1.0" encoding="utf-8"?>
<!-- Generator: Adobe Illustrator 16.0.0, SVG Export Plug-In . SVG Version: 6.00 Build 0)  -->
<!DOCTYPE svg PUBLIC "-//W3C//DTD SVG 1.1//EN" "http://www.w3.org/Graphics/SVG/1.1/DTD/svg11.dtd">
<svg version="1.1" xmlns="http://www.w3.org/2000/svg" xmlns:xlink="http://www.w3.org/1999/xlink" x="0px" y="0px"
	 width="283.465px" height="283.464px" viewBox="0 0 283.465 283.464" enable-background="new 0 0 283.465 283.464"
	 xml:space="preserve">
<g id="Facebook" display="none">
	<path display="inline" fill="#FFFFFF" d="M82.732,100.532h27V88.283v-12v-2.001c0-11.55,0.298-29.4,8.698-40.449
		c8.85-11.702,21-19.65,41.901-19.65c34.048,0,48.4,4.849,48.4,4.849l-6.75,40.001c0,0-11.25-3.251-21.75-3.251
		s-19.9,3.75-19.9,14.25v4.25v14.001v12.249h43.048l-3,39.05h-40.048v135.7h-50.6v-135.7h-27V100.532L82.732,100.532z"/>
</g>
<g id="Twitter" display="none">
	<path display="inline" fill="#FFFFFF" d="M270.232,67.508c-9.161,4.063-19.007,6.809-29.34,8.044
		c10.546-6.322,18.646-16.333,22.461-28.263c-9.871,5.855-20.804,10.106-32.44,12.396c-9.318-9.928-22.595-16.131-37.288-16.131
		c-28.212,0-51.085,22.872-51.085,51.084c0,4.003,0.451,7.903,1.322,11.642c-42.456-2.131-80.1-22.468-105.295-53.376
		c-4.397,7.545-6.917,16.32-6.917,25.683c0,17.724,9.018,33.359,22.726,42.521c-8.374-0.266-16.251-2.564-23.138-6.391
		c-0.005,0.214-0.005,0.427-0.005,0.643c0,24.751,17.609,45.398,40.978,50.092c-4.286,1.167-8.799,1.792-13.458,1.792
		c-3.292,0-6.492-0.321-9.612-0.917c6.501,20.295,25.368,35.066,47.721,35.478c-17.483,13.702-39.51,21.868-63.445,21.868
		c-4.124,0-8.189-0.241-12.186-0.715c22.607,14.494,49.46,22.954,78.309,22.954c93.965,0,145.349-77.844,145.349-145.351
		c0-2.214-0.05-4.417-0.148-6.609C254.724,86.75,263.384,77.752,270.232,67.508z"/>
</g>
<g id="YouTube" display="none">
	<g display="inline">
		<g>
			<path fill="#FFFFFF" d="M45.986,4h19.889l12.813,51.103h1.24L92.146,4h20.064l-22.98,74.799v53.049h-19.75V81.187L45.986,4z"/>
			<path fill="#FFFFFF" d="M111.315,59.098c0-7.304,2.359-13.119,7.081-17.448c4.722-4.331,11.064-6.496,19.034-6.496
				c7.256,0,13.202,2.284,17.836,6.849c4.634,4.565,6.953,10.44,6.953,17.629v48.709c0,8.073-2.278,14.406-6.82,19
				c-4.543,4.595-10.801,6.891-18.767,6.891c-7.671,0-13.811-2.371-18.411-7.111c-4.604-4.741-6.906-11.12-6.906-19.132V59.098z
				 M129.36,109.755c0,2.598,0.622,4.6,1.872,6.014c1.249,1.415,3.031,2.121,5.352,2.121c2.377,0,4.265-0.722,5.661-2.166
				c1.398-1.444,2.097-3.433,2.097-5.969V58.391c0-2.061-0.716-3.726-2.143-4.992c-1.424-1.267-3.296-1.903-5.615-1.903
				c-2.141,0-3.879,0.636-5.218,1.903c-1.339,1.266-2.006,2.931-2.006,4.992V109.755z"/>
			<path fill="#FFFFFF" d="M227.15,37.538v94.31h-17.534v-10.411c-3.231,3.837-6.594,6.759-10.089,8.766
				c-3.495,2.003-6.89,3.008-10.177,3.008c-4.054,0-7.112-1.401-9.168-4.21c-2.056-2.806-3.083-7.02-3.083-12.635V37.538h17.537
				v72.295c0,2.237,0.364,3.853,1.1,4.854c0.734,1.001,1.924,1.502,3.57,1.502c1.294,0,2.919-0.663,4.89-1.986
				c1.967-1.327,3.773-3.018,5.42-5.078V37.538H227.15z"/>
		</g>
		<g>
			<path fill="#FFFFFF" d="M93.069,172.587H44v15.024h16.541V276.1H76.53v-88.488h16.539V172.587z M119.201,257.701
				c-1.331,1.672-2.795,3.04-4.388,4.112c-1.594,1.072-2.912,1.606-3.961,1.606c-1.331,0-2.295-0.403-2.889-1.216
				c-0.594-0.806-0.892-2.116-0.892-3.927V199.74H92.876v63.823c0,4.548,0.832,7.955,2.497,10.232
				c1.664,2.271,4.14,3.406,7.42,3.406c2.664,0,5.41-0.813,8.238-2.433c2.833-1.626,5.554-3.991,8.17-7.098v8.429h14.197v-76.36
				h-14.197V257.701z M174.209,198.774c-2.201,0-4.377,0.607-6.532,1.82c-2.149,1.217-4.179,2.984-6.092,5.314v-33.321h-14.336
				V276.1h14.336v-5.869c1.865,2.324,3.887,4.044,6.06,5.16c2.176,1.116,4.65,1.674,7.425,1.674c4.206,0,7.421-1.439,9.646-4.32
				c2.221-2.88,3.335-7.037,3.335-12.466v-42.361c0-6.237-1.185-10.99-3.553-14.251
				C182.132,200.409,178.701,198.774,174.209,198.774z M173.439,258.202c0,2.435-0.412,4.191-1.229,5.263
				c-0.819,1.074-2.095,1.609-3.83,1.609c-1.206,0-2.35-0.272-3.435-0.822c-1.086-0.546-2.207-1.442-3.36-2.685v-47.584
				c0.965-1.05,1.938-1.823,2.928-2.325c0.986-0.5,1.987-0.753,2.998-0.753c1.924,0,3.397,0.668,4.408,2.006
				c1.016,1.335,1.521,3.29,1.521,5.865V258.202z M240.521,239.712v-19.441c0-7.248-1.743-12.801-5.229-16.665
				c-3.485-3.863-8.477-5.794-14.973-5.794c-6.352,0-11.535,2.087-15.543,6.258c-4.016,4.172-6.021,9.572-6.021,16.201v34.272
				c0,7.352,1.83,13.126,5.482,17.326c3.652,4.197,8.656,6.298,15.009,6.298c7.068,0,12.381-1.983,15.939-5.943
				c3.558-3.96,5.335-9.855,5.335-17.681v-5.734h-14.609v5.305c0,4.493-0.469,7.4-1.406,8.715c-0.939,1.312-2.584,1.97-4.935,1.97
				c-2.265,0-3.86-0.772-4.798-2.331c-0.938-1.552-1.406-4.338-1.406-8.354v-14.401H240.521z M213.367,220.128
				c0-3.195,0.492-5.485,1.48-6.87c0.983-1.387,2.605-2.078,4.864-2.078c2.162,0,3.734,0.691,4.722,2.078
				c0.984,1.385,1.479,3.675,1.479,6.87v7.732h-12.545V220.128z"/>
			<path fill="#FFFFFF" d="M93.069,173.69H44v15.024h16.541v88.487H76.53v-88.487h16.539V173.69z M119.201,258.805
				c-1.331,1.669-2.795,3.041-4.388,4.111c-1.594,1.071-2.912,1.605-3.961,1.605c-1.331,0-2.295-0.403-2.889-1.213
				s-0.892-2.119-0.892-3.931V200.84H92.876v63.828c0,4.545,0.832,7.956,2.497,10.228c1.664,2.273,4.14,3.408,7.42,3.408
				c2.664,0,5.41-0.812,8.238-2.432c2.833-1.626,5.554-3.993,8.17-7.098v8.427h14.197V200.84h-14.197V258.805z M174.209,199.878
				c-2.201,0-4.377,0.604-6.532,1.817c-2.149,1.216-4.179,2.988-6.092,5.316V173.69h-14.336v103.512h14.336v-5.868
				c1.865,2.324,3.887,4.044,6.06,5.163c2.176,1.112,4.65,1.671,7.425,1.671c4.206,0,7.421-1.437,9.646-4.322
				c2.221-2.879,3.335-7.035,3.335-12.463v-42.363c0-6.236-1.185-10.989-3.553-14.247
				C182.132,201.512,178.701,199.878,174.209,199.878z M173.439,259.307c0,2.432-0.412,4.188-1.229,5.261
				c-0.819,1.072-2.095,1.608-3.83,1.608c-1.206,0-2.35-0.272-3.435-0.821c-1.086-0.547-2.207-1.444-3.36-2.687v-47.583
				c0.965-1.05,1.938-1.825,2.928-2.328c0.986-0.497,1.987-0.75,2.998-0.75c1.924,0,3.397,0.669,4.408,2.006
				c1.016,1.336,1.521,3.29,1.521,5.864V259.307z M240.521,240.813v-19.439c0-7.247-1.743-12.801-5.229-16.667
				c-3.485-3.862-8.477-5.793-14.973-5.793c-6.352,0-11.535,2.087-15.543,6.259c-4.016,4.174-6.021,9.572-6.021,16.201v34.272
				c0,7.352,1.83,13.126,5.482,17.326c3.652,4.197,8.656,6.298,15.009,6.298c7.068,0,12.381-1.981,15.939-5.943
				c3.558-3.957,5.335-9.853,5.335-17.681v-5.736h-14.609v5.306c0,4.497-0.469,7.402-1.406,8.714
				c-0.939,1.314-2.584,1.97-4.935,1.97c-2.265,0-3.86-0.772-4.798-2.33c-0.938-1.551-1.406-4.337-1.406-8.354v-14.402H240.521z
				 M213.367,221.23c0-3.196,0.492-5.484,1.48-6.869c0.983-1.386,2.605-2.078,4.864-2.078c2.162,0,3.734,0.692,4.722,2.078
				c0.984,1.385,1.479,3.673,1.479,6.869v7.731h-12.545V221.23z"/>
		</g>
	</g>
</g>
<g id="RSS" display="none">
	<g id="lines__x003C_Group_x003E_" display="inline">
		<path id="circle" fill="#FFFFFF" d="M91.757,220.423c0,15.758-12.778,28.528-28.533,28.528c-15.753,0-28.531-12.771-28.531-28.528
			c0-15.761,12.778-28.537,28.531-28.537C78.979,191.886,91.757,204.663,91.757,220.423z"/>
		<g>
			<path fill="#FFFFFF" d="M34.726,148.489c26.738,0,51.864,10.45,70.752,29.426c18.917,19.008,29.333,44.306,29.333,71.237h41.193
				c0-78.219-63.378-141.857-141.278-141.857V148.489z"/>
		</g>
		<g>
			<path fill="#FFFFFF" d="M34.786,75.462c95.278,0,172.793,77.937,172.793,173.733h41.194
				c0-118.509-95.995-214.927-213.987-214.927V75.462z"/>
		</g>
	</g>
</g>
<g id="Linkedin">
	<path fill-rule="evenodd" clip-rule="evenodd" fill="#FFFFFF" d="M79.479,250.722V103.647H30.597v147.075H79.479L79.479,250.722z
		 M55.04,83.568c17.043,0,27.656-11.301,27.656-25.414c-0.319-14.428-10.613-25.413-27.333-25.413
		c-16.725,0-27.656,10.985-27.656,25.413c0,14.113,10.608,25.414,27.015,25.414H55.04L55.04,83.568z"/>
	<path fill-rule="evenodd" clip-rule="evenodd" fill="#FFFFFF" d="M106.532,250.722h48.886v-82.133c0-4.395,0.319-8.789,1.61-11.925
		c3.533-8.791,11.579-17.886,25.081-17.886c17.694,0,24.768,13.49,24.768,33.263v78.681h48.882v-84.333
		c0-45.172-24.117-66.194-56.282-66.194c-26.372,0-37.951,14.74-44.38,24.779h0.321v-21.327h-48.886
		C107.173,117.443,106.532,250.722,106.532,250.722L106.532,250.722z"/>
</g>
</svg>
