<?xml version="1.0" encoding="utf-8"?>
<!-- Generator: Adobe Illustrator 16.0.0, SVG Export Plug-In . SVG Version: 6.00 Build 0)  -->
<!DOCTYPE svg PUBLIC "-//W3C//DTD SVG 1.1//EN" "http://www.w3.org/Graphics/SVG/1.1/DTD/svg11.dtd">
<svg version="1.1" xmlns="http://www.w3.org/2000/svg" xmlns:xlink="http://www.w3.org/1999/xlink" x="0px" y="0px"
	 width="283.465px" height="283.464px" viewBox="0 0 283.465 283.464" enable-background="new 0 0 283.465 283.464"
	 xml:space="preserve">
<g id="Facebook" display="none">
	<path display="inline" fill="#FFFFFF" d="M82.732,100.532h27V88.283v-12v-2.001c0-11.55,0.298-29.4,8.698-40.449
		c8.85-11.702,21-19.65,41.901-19.65c34.048,0,48.4,4.849,48.4,4.849l-6.75,40.001c0,0-11.25-3.251-21.75-3.251
		s-19.9,3.75-19.9,14.25v4.25v14.001v12.249h43.048l-3,39.05h-40.048v135.7h-50.6v-135.7h-27V100.532L82.732,100.532z"/>
</g>
<g id="Twitter">
	<path fill="#FFFFFF" d="M270.232,67.508c-9.161,4.063-19.007,6.809-29.34,8.044c10.546-6.322,18.646-16.333,22.461-28.263
		c-9.871,5.855-20.804,10.106-32.44,12.396c-9.318-9.928-22.595-16.131-37.288-16.131c-28.212,0-51.085,22.872-51.085,51.084
		c0,4.003,0.451,7.903,1.322,11.642c-42.456-2.131-80.1-22.468-105.295-53.376c-4.397,7.545-6.917,16.32-6.917,25.683
		c0,17.724,9.018,33.359,22.726,42.521c-8.374-0.266-16.251-2.564-23.138-6.391c-0.005,0.214-0.005,0.427-0.005,0.643
		c0,24.751,17.609,45.398,40.978,50.092c-4.286,1.167-8.799,1.792-13.458,1.792c-3.292,0-6.492-0.321-9.612-0.917
		c6.501,20.295,25.368,35.066,47.721,35.478c-17.483,13.702-39.51,21.868-63.445,21.868c-4.124,0-8.189-0.241-12.186-0.715
		c22.607,14.494,49.46,22.954,78.309,22.954c93.965,0,145.349-77.844,145.349-145.351c0-2.214-0.05-4.417-0.148-6.609
		C254.724,86.75,263.384,77.752,270.232,67.508z"/>
</g>
</svg>
